<svg xmlns="http://www.w3.org/2000/svg" xmlns:xlink="http://www.w3.org/1999/xlink" width="32" height="32" preserveAspectRatio="xMidYMid meet" viewBox="0 0 32 32" style="-ms-transform: rotate(360deg); -webkit-transform: rotate(360deg); transform: rotate(360deg);"><path d="M8 8h2v4H8z" fill="#7C3AED"/><path d="M8 14h2v4H8z" fill="#7C3AED"/><path d="M14 8h2v4h-2z" fill="#7C3AED"/><path d="M14 14h2v4h-2z" fill="#7C3AED"/><path d="M8 20h2v4H8z" fill="#7C3AED"/><path d="M14 20h2v4h-2z" fill="#7C3AED"/><path d="M30 14a2 2 0 0 0-2-2h-6V4a2 2 0 0 0-2-2H4a2 2 0 0 0-2 2v26h28zM4 4h16v24H4zm18 24V14h6v14z" fill="#7C3AED"/><rect x="0" y="0" width="32" height="32" fill="rgba(0, 0, 0, 0)" /></svg>